<svg xmlns="http://www.w3.org/2000/svg" width="45" height="56"><path d="m0 0h45v56h-45z" fill="none"/><path d="m14.5 15h-9c-3.0322 0-5.5 2.4673-5.5 5.5v26c0 3.0322 2.4678 5.5 5.5 5.5h9c3.0322 0 5.5-2.4678 5.5-5.5v-26c0-3.0327-2.4678-5.5-5.5-5.5zm3.5 31.5c0 1.9297-1.5703 3.5-3.5 3.5h-9c-1.9297 0-3.5-1.5703-3.5-3.5v-26c0-1.9297 1.5703-3.5 3.5-3.5h9c1.9297 0 3.5 1.5703 3.5 3.5zm26-8h1v6h-1zm-12-23.5h6v1h-6zm12 15.5h1v6h-1zm-12 20.5h6v1h-6zm-6-14.5h-1v-6h1zm0-8h-1v-6h1zm0 16h-1v-6h1zm14-28.4496v-1.0251c2.799.2538 5 2.6107 5 5.4747h-1c0-2.314-1.7532-4.1979-4-4.4496zm4 30.4496h1c0 2.864-2.201 5.2209-5 5.4747v-1.0251c2.2468-.2517 4-2.1356 4-4.4496zm-14-31.4747v1.0251c-2.2468.2517-4 2.1356-4 4.4496h-1c0-2.864 2.201-5.2209 5-5.4747zm0 35.9243v1.0251c-2.799-.2538-5-2.6107-5-5.4747h1c0 2.314 1.7532 4.1979 4 4.4496zm14-28.4496h1v6h-1z" fill="#1d1d1f"/></svg>