<svg xmlns="http://www.w3.org/2000/svg" width="40" height="56"><path d="M0 0h40v56H0z" fill="none"/><path d="M20 13C9.2 13 .5 21.7.5 32.5S9.2 52 20 52s19.5-8.7 19.5-19.5S30.8 13 20 13zm-8.3 10.9h1v.7c.2-.5.7-.8 1.3-.8s1.1.3 1.3.9c.2-.5.8-.9 1.5-.9 1 0 1.5.6 1.5 1.6v3.3h-.9v-3.1c0-.7-.3-1-.9-1s-1 .5-1 1v3h-.9v-3.2c0-.5-.4-.9-.9-.9s-1 .5-1 1.1v2.9h-1v-4.8zm7.6 3.4c0-.9.6-1.4 1.8-1.4h1.3v-.5c0-.5-.3-.8-1-.8s-.9.2-1 .5-.9 0-.9 0c.1-.8.9-1.3 2-1.3s1.9.6 1.9 1.6v3.3h-.9V28c-.3.5-.8.8-1.4.8-.9 0-1.6-.6-1.6-1.4zm1.9.7c.7 0 1.2-.5 1.2-1.1v-.4h-1.2c-.7.1-1 .4-1 .8s.4.7.9.7zm3.1-1.8c0-1.5.8-2.5 2.2-2.5s1.9.7 2 1.6-.9 0-.9 0c-.1-.5-.5-.8-1.1-.8s-1.3.6-1.3 1.7.5 1.7 1.3 1.7 1-.3 1.1-.8.9 0 .9 0c-.2 1-.9 1.6-2 1.6s-2.2-.9-2.2-2.5zM9 37.1c0-3.9 2.2-6.4 5.7-6.4s5.7 2.5 5.7 6.4c0 3.9-2.2 6.4-5.7 6.4S9 41 9 37.1zm9.8 0c0-3-1.6-5-4.1-5S10.6 34 10.6 37c0 3.1 1.6 5 4.1 5s4.1-1.9 4.1-4.9zm2.6 3c0-.1 1.5-.1 1.5-.1.2 1.4 1.4 2.1 3.2 2.1S29 41.3 29 40c0-1.1-.7-1.7-2.4-2.1l-1.4-.3c-2.4-.5-3.5-1.6-3.5-3.4 0-2 1.8-3.5 4.3-3.5s4.2 1.4 4.3 3.4c0 .1-1.5.1-1.5.1-.2-1.4-1.2-2.1-2.8-2.1s-2.7.8-2.7 2c0 1 .7 1.6 2.4 2l1.4.3c2.5.6 3.6 1.6 3.6 3.5 0 2.2-1.7 3.6-4.6 3.6s-4.5-1.3-4.6-3.4z"/></svg>